<svg xmlns="http://www.w3.org/2000/svg" xmlns:xlink="http://www.w3.org/1999/xlink" preserveAspectRatio="xMidYMid" width="319.5" height="511.5" viewBox="0 0 319.5 511.5">
  <defs>
    <style>
      .cls-1 {
        fill: #fff;
        fill-rule: evenodd;
      }
    </style>
  </defs>
  <path d="M272.000,0.000 L48.000,0.000 C21.600,0.000 0.000,21.600 0.000,48.000 L0.000,464.000 C0.000,490.400 21.600,512.000 48.000,512.000 L272.000,512.000 C298.400,512.000 320.000,490.400 320.000,464.000 L320.000,48.000 C320.000,21.600 298.400,0.000 272.000,0.000 ZM96.000,24.000 L224.000,24.000 L224.000,40.000 L96.000,40.000 L96.000,24.000 ZM160.000,480.000 C142.327,480.000 128.000,465.673 128.000,448.000 C128.000,430.327 142.327,416.000 160.000,416.000 C177.673,416.000 192.000,430.327 192.000,448.000 C192.000,465.673 177.673,480.000 160.000,480.000 ZM288.000,384.000 L32.000,384.000 L32.000,64.000 L288.000,64.000 L288.000,384.000 Z" class="cls-1"/>
</svg>
