<svg xmlns="http://www.w3.org/2000/svg" xmlns:xlink="http://www.w3.org/1999/xlink" preserveAspectRatio="xMidYMid" width="612" height="612" viewBox="0 0 612 612">
  <defs>
    <style>
      .cls-1 {
        fill: #fff;
        fill-rule: evenodd;
      }
    </style>
  </defs>
  <path d="M306.000,612.000 C137.270,612.000 -0.000,474.730 -0.000,306.000 C-0.000,137.270 137.270,-0.000 306.000,-0.000 C474.730,-0.000 612.000,137.270 612.000,306.000 C612.000,474.730 474.730,612.000 306.000,612.000 ZM306.000,64.421 C172.793,64.421 64.421,172.793 64.421,306.000 C64.421,439.207 172.793,547.579 306.000,547.579 C439.207,547.579 547.579,439.207 547.579,306.000 C547.579,172.793 439.207,64.421 306.000,64.421 ZM470.262,351.307 L350.766,351.307 C341.527,366.358 324.917,376.420 306.000,376.420 C277.057,376.420 253.508,352.873 253.508,323.928 C253.508,305.011 263.571,288.402 278.621,279.162 L278.621,135.508 C278.621,120.387 290.879,108.129 306.000,108.129 C321.121,108.129 333.379,120.387 333.379,135.508 L333.379,279.162 C340.454,283.504 346.424,289.474 350.766,296.549 L470.262,296.549 C485.384,296.549 497.641,308.807 497.641,323.928 C497.641,339.050 485.384,351.307 470.262,351.307 Z" class="cls-1"/>
</svg>
