<svg xmlns="http://www.w3.org/2000/svg" xmlns:xlink="http://www.w3.org/1999/xlink" preserveAspectRatio="xMidYMid" width="300" height="300" viewBox="0 0 300 300">
  <defs>
    <style>
      .cls-1 {
        fill: #fff;
        fill-rule: evenodd;
      }
    </style>
  </defs>
  <path d="M149.997,300.000 C67.157,300.000 -0.000,232.836 -0.000,149.998 C-0.000,67.159 67.157,-0.000 149.997,-0.000 C232.838,-0.000 300.000,67.159 300.000,149.998 C300.000,232.836 232.838,300.000 149.997,300.000 ZM150.314,68.679 C150.207,68.679 150.104,68.674 150.000,68.669 C149.896,68.674 149.792,68.679 149.686,68.679 C124.414,69.079 103.852,89.967 103.853,115.247 C103.853,144.056 132.538,173.196 147.062,186.102 C147.077,186.117 147.093,186.130 147.111,186.146 C148.151,187.072 149.123,187.917 150.000,188.667 C163.125,177.453 196.149,146.155 196.149,115.247 C196.149,89.967 175.589,69.078 150.314,68.679 ZM173.649,187.957 C170.184,191.450 166.903,194.526 164.022,197.099 C184.091,199.142 195.949,205.427 195.949,209.151 C195.949,213.635 178.751,221.875 150.652,221.875 C122.552,221.875 105.357,213.635 105.357,209.151 C105.357,205.502 116.735,199.371 136.101,197.208 C133.245,194.664 129.990,191.616 126.551,188.159 C108.772,191.437 94.982,198.513 94.982,209.154 C94.982,224.316 122.988,232.252 150.652,232.252 C178.317,232.252 206.323,224.316 206.323,209.154 C206.323,198.292 191.962,191.145 173.649,187.957 ZM126.289,110.573 C126.289,97.236 137.101,86.424 150.439,86.424 C163.776,86.424 174.588,97.236 174.588,110.573 C174.588,123.910 163.776,134.722 150.439,134.722 C137.101,134.722 126.289,123.910 126.289,110.573 Z" class="cls-1"/>
</svg>
